<?xml version="1.0" encoding="UTF-8"?>
<!DOCTYPE svg PUBLIC "-//W3C//DTD SVG 1.1//EN" "http://www.w3.org/Graphics/SVG/1.1/DTD/svg11.dtd">
<!-- Creator: CorelDRAW -->
<svg xmlns="http://www.w3.org/2000/svg" xml:space="preserve" width="42.5068mm" height="22.8885mm" style="shape-rendering:geometricPrecision; text-rendering:geometricPrecision; image-rendering:optimizeQuality; fill-rule:evenodd; clip-rule:evenodd"
viewBox="0 0 3.05561 1.64534"
 xmlns:xlink="http://www.w3.org/1999/xlink">
 <defs>
  <style type="text/css">
   <![CDATA[
    .fil0 {fill:#0C54A0;fill-rule:nonzero}
   ]]>
  </style>
 </defs>
 <g id="Слой_x0020_1">
  <metadata id="CorelCorpID_0Corel-Layer"/>
  <path class="fil0" d="M1.52781 1.4818c-0.802223,0 -1.33875,-0.26568 -1.33875,-0.659093 0,-0.39347 0.536529,-0.659179 1.33875,-0.659179 0.802209,0 1.33874,0.265709 1.33874,0.659179 0,0.393413 -0.536529,0.659093 -1.33874,0.659093zm0 -1.3336c-0.812445,0 -1.35409,0.270834 -1.35409,0.674505 0,0.403621 0.541647,0.674455 1.35409,0.674455 0.812431,0 1.35406,-0.270834 1.35406,-0.674455 0,-0.403671 -0.541626,-0.674505 -1.35406,-0.674505zm0 1.42047c-0.863534,0 -1.44094,-0.301486 -1.44094,-0.745966 0,-0.449692 0.57741,-0.746024 1.44094,-0.746024 0.868652,0 1.44094,0.296332 1.44094,0.746024 0,0.44448 -0.572285,0.745966 -1.44094,0.745966zm0 -1.56867c-0.919763,0 -1.52781,0.332124 -1.52781,0.822703 0,0.485397 0.608047,0.822639 1.52781,0.822639 0.924874,0 1.5278,-0.337242 1.5278,-0.822639 0,-0.49058 -0.602922,-0.822703 -1.5278,-0.822703zm0.659129 0.55184l0.153302 0 0 0.209545 0.148177 -0.209545 0.168635 0 -0.194176 0.255494 0.199273 0.260591 -0.183904 0 -0.138005 -0.209509 0 0.209509 -0.153302 0 0 -0.516085zm-0.608019 0l0.153295 0 0.08683 0.306576 0.0868732 -0.306576 0.153295 0 0.0715329 0.516085 -0.143073 0 -0.0357413 -0.275881 -0.0817765 0.275881 -0.102177 0 -0.0817765 -0.275881 -0.0357628 0.275881 -0.143073 0 0.0715544 -0.516085zm-0.12774 0l0 0.516085 -0.148206 0 0 -0.393449 -0.0970665 0 0 0.148227c0,0.0664147 -0.0051326,0.148141 -0.0459777,0.194104 -0.0408882,0.0511175 -0.117554,0.0664722 -0.204405,0.0511175l0 -0.12774c0.0817549,0.0153043 0.102192,-0.0153547 0.102192,-0.117482l0 -0.270863 0.393463 0zm-1.01684 0l0.153259 0 0 0.189087 0.163531 0 0 -0.189087 0.153295 0 0 0.516085 -0.153295 0 0 -0.204412 -0.163531 0 0 0.204412 -0.153259 0 0 -0.516085z"/>
 </g>
</svg>
